<svg height="512pt" viewBox="0 0 512.03707 512" width="512pt" xmlns="http://www.w3.org/2000/svg"><path d="m54.632812 338.621094c9.859376 9.792968 20.773438 18.464844 32.542969 25.855468l-49.160156 49.195313c-4.804687 4.800781-7.503906 11.3125-7.503906 18.105469 0 6.792968 2.699219 13.308594 7.503906 18.109375l24.152344 24.148437c4.800781 4.804688 11.3125 7.503906 18.105469 7.503906 6.792968 0 13.308593-2.699218 18.109374-7.503906l80.894532-80.894531h.792968c1.941407-.023437 3.867188-.382813 5.683594-1.058594.636719-.046875 1.261719-.171875 1.871094-.367187 37.109375-15.292969 67.042969-18.773438 94.207031-10.90625 8.585938 2.496094 16.804688 6.121094 24.4375 10.777344.359375 3.90625 2.0625 7.566406 4.824219 10.351562l102.578125 102.570312c9.996094 9.992188 26.199219 9.992188 36.199219 0l24.132812-24.132812c4.800782-4.800781 7.496094-11.3125 7.496094-18.101562 0-6.792969-2.695312-13.304688-7.496094-18.105469l-36.226562-36.164063-54.382813-54.382812c4.488281-1.457032 9.003907-3.089844 13.527344-4.949219 45.582031-19.113281 81.828125-55.367187 100.9375-100.949219 9.078125-21.671875 13.882813-44.890625 14.160156-68.386718.339844-23.292969-3.894531-46.429688-12.460937-68.09375-17.933594-45.09375-53.648438-80.808594-98.738282-98.75-21.675781-8.535157-44.808593-12.765626-68.105468-12.4570318-23.488282.2734378-46.707032 5.0742188-68.375 14.1406248-14.15625 5.929688-27.523438 13.59375-39.792969 22.816407-14.746094-4.03125-29.941406-6.191407-45.226563-6.433594-23.296874-.328125-46.4375 3.894531-68.113281 12.441406-45.128906 17.886719-80.859375 53.625-98.738281 98.757812-8.550781 21.671876-12.78125 44.804688-12.4492188 68.101563.2851568 23.484375 5.0820308 46.691406 14.1289068 68.363281 9.394531 22.597656 23.152343 43.121094 40.484374 60.398438zm49.746094 105.25-18.113281-18.117188c-3.394531-2.847656-8.402344-2.625-11.527344.511719-3.128906 3.136719-3.335937 8.144531-.480469 11.527344l18.117188 18.117187-6.042969 6.035156c-3.382812 3.210938-8.6875 3.210938-12.074219 0l-24.175781-24.152343c-1.601562-1.597657-2.5-3.769531-2.5-6.035157 0-2.265624.898438-4.4375 2.5-6.039062l30.148438-30.148438 18.117187 18.117188c3.347656 3.234375 8.671875 3.1875 11.960938-.105469 3.292968-3.289062 3.339844-8.613281.105468-11.960937l-18.117187-18.117188 10.285156-10.28125c4.09375 2.074219 8.199219 4.136719 12.457031 5.914063 13.585938 5.597656 27.796876 9.550781 42.324219 11.765625zm111.257813-79.207032 118.496093-118.496093c-6.328124 23.195312-6.410156 47.652343-.230468 70.886719 2.6875 9.292968 6.507812 18.222656 11.375 26.582031l-32.164063 32.164062c-8.351562-4.875-17.273437-8.703125-26.5625-11.394531-23.246093-6.179688-47.714843-6.09375-70.914062.257812zm246.300781 103.671876-24.160156 24.132812c-3.332032 3.328125-8.734375 3.328125-12.066406 0l-6.007813-6.035156 18.074219-18.105469c2.21875-2.144531 3.109375-5.316406 2.328125-8.300781s-3.109375-5.3125-6.09375-6.09375-6.15625.109375-8.300781 2.328125l-18.097657 18.105469-36.207031-36.207032 18.097656-18.097656c3.234375-3.347656 3.1875-8.671875-.101562-11.960938-3.292969-3.292968-8.613282-3.339843-11.964844-.105468l-18.097656 18.097656-36.207032-36.207031 36.207032-36.207031 12.066406 12.078124-18.109375 18.097657c-2.15625 2.15625-3 5.296875-2.210937 8.242187.789062 2.945313 3.089843 5.25 6.035156 6.039063 2.941406.789062 6.085937-.050781 8.242187-2.207031l18.101563-18.109376 36.207031 36.207032-18.101563 18.101562c-2.21875 2.140625-3.105468 5.316406-2.328124 8.296875.78125 2.984375 3.113281 5.316407 6.097656 6.09375 2.980468.78125 6.15625-.105469 8.296875-2.324219l18.167969-18.101562 30.164062 30.167969c1.597656 1.605469 2.492188 3.777343 2.488281 6.042969-.007812 2.265624-.914062 4.433593-2.519531 6.03125zm-191.039062-438.433594c19.660156-8.210938 40.71875-12.558594 62.023437-12.800782 21.074219-.332031 42.011719 3.496094 61.609375 11.261719 40.710938 16.203125 72.957031 48.453125 89.15625 89.167969 7.75 19.597656 11.574219 40.527344 11.265625 61.601562-.246094 21.304688-4.589844 42.359376-12.800781 62.019532-17.378906 41.414062-50.324219 74.355468-91.742188 91.726562-6.878906 2.808594-13.941406 5.140625-21.136718 6.976563-2.414063-1.722657-5.238282-2.78125-8.191407-3.0625-4.65625-7.636719-8.277343-15.851563-10.777343-24.4375-7.851563-27.164063-4.378907-57.089844 10.914062-94.183594.175781-.570313.289062-1.15625.339844-1.75.761718-2.039063 1.128906-4.207031 1.074218-6.382813-.746093-22.152343-5.496093-43.984374-14.027343-64.441406-19.078125-45.59375-55.328125-81.847656-100.914063-100.925781-.933594-.382813-1.886718-.648437-2.828125-1.015625 8.265625-5.328125 16.976563-9.929688 26.035157-13.753906zm-242.550782 118.125c16.140625-40.734375 48.40625-72.988282 89.148438-89.113282 18.957031-7.484374 39.15625-11.308593 59.539062-11.261718h2.089844c21.300781.25 42.359375 4.59375 62.019531 12.796875 41.402344 17.351562 74.328125 50.285156 91.671875 91.691406 7.757813 18.570313 12.054688 38.398437 12.671875 58.511719l-126.386719 126.449218-.09375.058594-.058593.085938-38.828125 38.828125-.042969.058593c-20.097656-.671874-39.90625-4.984374-58.46875-12.722656-41.429687-17.351562-74.378906-50.300781-91.726563-91.734375-8.191406-19.664062-12.539062-40.71875-12.796874-62.019531-.308594-21.082031 3.519531-42.019531 11.261718-61.628906zm0 0"/><path d="m301.328125 165.238281c4.839844 11.640625 8 23.910157 9.386719 36.4375.476562 4.324219 4.125 7.601563 8.476562 7.605469.316406 0 .632813-.019531.945313-.050781 4.671875-.519531 8.042969-4.714844 7.542969-9.386719-1.566407-14.144531-5.140626-27.992188-10.605469-41.132812-7.695313-18.46875-18.957031-35.242188-33.144531-49.355469-3.347657-3.234375-8.667969-3.1875-11.960938.101562-3.292969 3.292969-3.339844 8.617188-.105469 11.964844 12.605469 12.527344 22.621094 27.417969 29.464844 43.816406zm0 0"/><path d="m53.546875 270.378906c2.851563.007813 5.519531-1.410156 7.105469-3.777344 1.589844-2.367187 1.890625-5.371093.804687-8.007812-3.90625-9.5-6.699219-19.421875-8.320312-29.566406l-.519531-39.253906c1.335937-9.980469 3.855468-19.761719 7.507812-29.140626 1.144531-2.839843.679688-6.078124-1.21875-8.480468s-4.9375-3.601563-7.964844-3.148438c-3.027344.457032-5.578125 2.5-6.6875 5.355469-6.929687 17.523437-10.359375 36.234375-10.101562 55.074219.230468 19.125 4.136718 38.027344 11.503906 55.679687 1.320312 3.191407 4.4375 5.269531 7.890625 5.265625zm0 0"/><path d="m455.21875 239.207031c4.355469 1.808594 9.347656-.257812 11.15625-4.609375 7.367188-17.648437 11.273438-36.546875 11.507812-55.671875.28125-18.867187-3.140624-37.605469-10.066406-55.15625-1.109375-2.855469-3.660156-4.902343-6.6875-5.355469-3.027344-.457031-6.066406.746094-7.964844 3.148438-1.898437 2.402344-2.363281 5.636719-1.21875 8.476562 3.652344 9.382813 6.175782 19.167969 7.507813 29.152344l-.519531 39.25c-1.621094 10.148438-4.414063 20.074219-8.320313 29.578125-.878906 2.09375-.886719 4.453125-.023437 6.550781.867187 2.101563 2.53125 3.769532 4.628906 4.636719zm0 0"/><path d="m204.816406 460.835938c0 28.277343 22.925782 51.199218 51.203125 51.199218 28.277344 0 51.199219-22.921875 51.199219-51.199218 0-28.277344-22.921875-51.203126-51.199219-51.203126-28.265625.03125-51.171875 22.9375-51.203125 51.203126zm85.335938 0c0 18.851562-15.28125 34.132812-34.132813 34.132812-18.851562 0-34.136719-15.28125-34.136719-34.132812 0-18.851563 15.285157-34.136719 34.136719-34.136719 18.851563 0 34.132813 15.285156 34.132813 34.136719zm0 0"/><path d="m241.425781 446.242188c-2.460937 2.441406-3.199219 6.128906-1.871093 9.332031 1.328124 3.199219 4.464843 5.28125 7.929687 5.261719.574219-.015626 1.144531-.074219 1.707031-.171876.535156-.09375 1.050782-.265624 1.535156-.511718.542969-.1875 1.0625-.445313 1.535157-.769532.449219-.3125.875-.65625 1.28125-1.023437 3.347656-3.347656 3.347656-8.769531 0-12.117187-3.34375-3.347657-8.769531-3.347657-12.117188 0zm0 0"/></svg>